<svg width="0" height="0" class="hidden">
  <symbol  xmlns="http://www.w3.org/2000/svg" viewBox="0 0 56 40" id="Vector (4)">
    <path  d="M12.575 18.552c-1.008 0-1.896-.176-2.664-.528-.768-.352-1.36-.84-1.776-1.464-.416-.64-.624-1.376-.624-2.208 0-.704.144-1.344.432-1.92a3.703 3.703 0 011.2-1.368 3 3 0 011.68-.504c.56 0 1.032.144 1.416.432.384.272.624.656.72 1.152-.832 0-1.496.224-1.992.672-.496.432-.744 1.024-.744 1.776 0 .688.208 1.24.624 1.656.416.416.968.624 1.656.624.848 0 1.544-.28 2.088-.84.56-.576.84-1.296.84-2.16 0-.752-.208-1.464-.624-2.136-.416-.672-1.04-1.488-1.872-2.448-.864-.992-1.52-1.84-1.968-2.544a4.488 4.488 0 01-.648-2.352c0-.832.232-1.576.696-2.232.464-.672 1.104-1.2 1.92-1.584C13.751.192 14.671 0 15.695 0c1.296 0 2.328.304 3.096.912.784.608 1.176 1.424 1.176 2.448 0 .672-.168 1.216-.504 1.632a1.615 1.615 0 01-1.32.624c-.608 0-1.096-.248-1.464-.744.304-.224.544-.52.72-.888.176-.368.264-.752.264-1.152 0-.512-.152-.92-.456-1.224-.304-.304-.72-.456-1.248-.456-.64 0-1.168.232-1.584.696-.4.448-.6 1.024-.6 1.728 0 .64.184 1.24.552 1.8.368.544.944 1.248 1.728 2.112.64.688 1.152 1.28 1.536 1.776.4.496.736 1.072 1.008 1.728.288.64.432 1.336.432 2.088a4.78 4.78 0 01-.864 2.784c-.56.832-1.336 1.488-2.328 1.968-.976.48-2.064.72-3.264.72zm10.184-.288c-.768 0-1.392-.24-1.872-.72-.464-.48-.696-1.2-.696-2.16 0-.4.064-.92.192-1.56l1.632-7.704h3.456l-1.728 8.16c-.048.24-.072.464-.072.672 0 .656.24.984.72.984.448 0 .832-.184 1.152-.552.32-.384.576-.904.768-1.56l1.632-7.704h3.456l-1.728 8.16a2.97 2.97 0 00-.096.768c0 .32.072.552.216.696.16.128.416.192.768.192.448 0 .832-.192 1.152-.576.336-.384.6-.896.792-1.536h1.008c-.592 1.728-1.328 2.904-2.208 3.528-.864.608-1.736.912-2.616.912-.688 0-1.24-.192-1.656-.576-.4-.384-.64-.952-.72-1.704-.544.88-1.12 1.48-1.728 1.8-.592.32-1.2.48-1.824.48zM34.132 6.12h3.456l-.312 1.488c.544-.48 1.032-.848 1.464-1.104a2.855 2.855 0 011.44-.384c.512 0 .912.176 1.2.528.304.352.456.776.456 1.272 0 .464-.152.872-.456 1.224-.304.352-.728.528-1.272.528-.352 0-.592-.08-.72-.24-.112-.176-.2-.424-.264-.744a2.203 2.203 0 00-.144-.456c-.048-.096-.136-.144-.264-.144-.336 0-.624.072-.864.216-.224.128-.52.36-.888.696l-1.92 9.12h-3.456l2.544-12zm5.231 18a2.874 2.874 0 01-1.968-.744 2.297 2.297 0 01-.864-1.848c0-.688.176-1.256.528-1.704a3.84 3.84 0 011.368-1.08c.56-.256 1.304-.528 2.232-.816l2.904-13.704c.32-1.536.88-2.6 1.68-3.192.816-.592 1.712-.888 2.688-.888.752 0 1.408.248 1.968.744.576.48.864 1.096.864 1.848 0 .368-.024.696-.072.984h-1.128c.032-.352.048-.568.048-.648 0-.256-.088-.456-.264-.6a.99.99 0 00-.648-.216c-.336 0-.664.152-.984.456-.32.288-.552.792-.696 1.512l-.408 1.896h1.752l-.168.96H46.42l-2.76 12.96c-.32 1.552-.872 2.616-1.656 3.192a4.272 4.272 0 01-2.64.888zm-.552-2.136c.64 0 1.096-.624 1.368-1.872l.312-1.392c-.848.288-1.496.616-1.944.984-.464.384-.696.88-.696 1.488 0 .192.096.368.288.528a.963.963 0 00.672.264zM3.36 39.264c-1.088 0-1.92-.264-2.496-.792C.288 37.928 0 37.168 0 36.192c0-.48.056-.936.168-1.368L2.736 22.8l3.552-.48-1.152 5.4c.448-.272.816-.448 1.104-.528.288-.096.576-.144.864-.144 1.888 0 2.832 1.368 2.832 4.104 0 1.104-.216 2.288-.648 3.552a7.44 7.44 0 01-2.112 3.216c-.976.896-2.248 1.344-3.816 1.344zm1.344-2.328c.496 0 .96-.304 1.392-.912.432-.624.776-1.392 1.032-2.304.256-.928.384-1.816.384-2.664 0-.64-.112-1.184-.336-1.632-.224-.448-.536-.672-.936-.672-.24 0-.512.04-.816.12-.288.064-.488.168-.6.312l-1.32 6.096a2.275 2.275 0 00-.072.552c0 .736.424 1.104 1.272 1.104zm9.632 2.28c-1.184 0-2.12-.304-2.808-.912-.688-.608-1.032-1.568-1.032-2.88 0-1.088.224-2.296.672-3.624a8.473 8.473 0 012.16-3.432c.992-.976 2.24-1.464 3.744-1.464 2.048 0 3.072 1.28 3.072 3.84v.024a.966.966 0 00.264.024c.528 0 1.136-.136 1.824-.408a9.553 9.553 0 001.872-1.032l.216.648c-.464.496-1.072.92-1.824 1.272a9.507 9.507 0 01-2.424.72c-.128 1.456-.456 2.728-.984 3.816-.528 1.088-1.208 1.928-2.04 2.52-.832.592-1.736.888-2.712.888zm.96-2.16c.384 0 .768-.216 1.152-.648.384-.448.72-1.048 1.008-1.8.288-.768.496-1.616.624-2.544-.432-.096-.648-.432-.648-1.008 0-.656.248-1.088.744-1.296-.032-.528-.112-.888-.24-1.08-.128-.208-.352-.312-.672-.312-.528 0-1.04.384-1.536 1.152-.496.768-.896 1.688-1.2 2.76-.304 1.072-.456 2.016-.456 2.832 0 .768.088 1.288.264 1.56.176.256.496.384.96.384zm8.963 2.208c-.912 0-1.672-.312-2.28-.936-.608-.624-.912-1.6-.912-2.928 0-1.184.232-2.424.696-3.72.48-1.312 1.184-2.416 2.112-3.312.944-.912 2.064-1.368 3.36-1.368.656 0 1.144.112 1.464.336.32.224.48.52.48.888v.168l.264-1.272h3.456l-1.728 8.16a2.97 2.97 0 00-.096.768c0 .688.328 1.032.984 1.032.448 0 .832-.208 1.152-.624.336-.416.6-.96.792-1.632h1.008c-.592 1.728-1.328 2.904-2.208 3.528-.864.608-1.736.912-2.616.912-.672 0-1.216-.184-1.632-.552-.4-.384-.64-.936-.72-1.656a6.8 6.8 0 01-1.56 1.608c-.56.4-1.232.6-2.016.6zm1.56-2.328c.4 0 .792-.184 1.176-.552.4-.384.672-.904.816-1.56l1.152-5.424c0-.208-.08-.408-.24-.6-.16-.208-.408-.312-.744-.312-.64 0-1.216.376-1.728 1.128-.512.736-.912 1.632-1.2 2.688-.288 1.04-.432 1.96-.432 2.76 0 .8.112 1.312.336 1.536.24.224.528.336.864.336zm9.825-9.816H39.1l-.312 1.488c.544-.48 1.032-.848 1.464-1.104a2.855 2.855 0 011.44-.384c.512 0 .912.176 1.2.528.304.352.456.776.456 1.272 0 .464-.152.872-.456 1.224-.304.352-.728.528-1.272.528-.352 0-.592-.08-.72-.24-.112-.176-.2-.424-.264-.744a2.203 2.203 0 00-.144-.456c-.048-.096-.136-.144-.264-.144-.336 0-.624.072-.864.216-.224.128-.52.36-.888.696l-1.92 9.12H33.1l2.544-12zm10.271 12.144c-.912 0-1.672-.312-2.28-.936-.608-.624-.912-1.6-.912-2.928 0-1.184.232-2.424.696-3.72.48-1.312 1.184-2.416 2.112-3.312.944-.912 2.064-1.368 3.36-1.368.656 0 1.144.112 1.464.336.32.224.48.52.48.888v.096l1.176-5.52 3.552-.48-2.76 12.96c-.064.24-.096.472-.096.696 0 .64.328.96.984.96.288 0 .544-.048.768-.144-.064.8-.352 1.416-.864 1.848-.496.416-1.088.624-1.776.624-.64 0-1.184-.16-1.632-.48-.432-.336-.72-.84-.864-1.512-.96 1.328-2.096 1.992-3.408 1.992zm1.56-2.328c.352 0 .704-.152 1.056-.456.368-.304.64-.728.816-1.272l.096-.384 1.176-5.496c-.144-.56-.472-.84-.984-.84-.64 0-1.216.376-1.728 1.128-.512.736-.912 1.632-1.2 2.688-.288 1.04-.432 1.96-.432 2.76 0 .8.112 1.312.336 1.536.24.224.528.336.864.336z" ></path>
  </symbol>
</svg>